<svg id="visual" viewBox="0 0 900 600" width="900" height="600" xmlns="http://www.w3.org/2000/svg" xmlns:xlink="http://www.w3.org/1999/xlink" version="1.1"><rect width="900" height="600" fill="#00101c"></rect><g><g transform="translate(216 416)"><path d="M0 -13.1L11.4 -6.6L11.4 6.6L0 13.1L-11.4 6.6L-11.4 -6.6Z" fill="none" stroke="#508aa5" stroke-width="2"></path></g><g transform="translate(854 95)"><path d="M0 -1L0.9 -0.5L0.9 0.5L0 1L-0.9 0.5L-0.9 -0.5Z" fill="none" stroke="#508aa5" stroke-width="2"></path></g><g transform="translate(704 500)"><path d="M0 -1L0.9 -0.5L0.9 0.5L0 1L-0.9 0.5L-0.9 -0.5Z" stroke="#508aa5" fill="none" stroke-width="2"></path></g><g transform="translate(300 335)"><path d="M0 -5L4.3 -2.5L4.3 2.5L0 5L-4.3 2.5L-4.3 -2.5Z" stroke="#508aa5" fill="none" stroke-width="2"></path></g><g transform="translate(593 573)"><path d="M0 -8L6.9 -4L6.9 4L0 8L-6.9 4L-6.9 -4Z" stroke="#508aa5" fill="none" stroke-width="2"></path></g><g transform="translate(390 584)"><path d="M0 -2L1.7 -1L1.7 1L0 2L-1.7 1L-1.7 -1Z" stroke="#508aa5" fill="none" stroke-width="2"></path></g><g transform="translate(109 238)"><path d="M0 -12L10.4 -6L10.4 6L0 12L-10.4 6L-10.4 -6Z" stroke="#508aa5" fill="none" stroke-width="2"></path></g><g transform="translate(704 430)"><path d="M0 -11L9.5 -5.5L9.5 5.5L0 11L-9.5 5.5L-9.5 -5.5Z" stroke="#508aa5" fill="none" stroke-width="2"></path></g><g transform="translate(103 207)"><path d="M0 -2L1.7 -1L1.7 1L0 2L-1.7 1L-1.7 -1Z" stroke="#508aa5" fill="none" stroke-width="2"></path></g><g transform="translate(735 573)"><path d="M0 -3L2.6 -1.5L2.6 1.5L0 3L-2.6 1.5L-2.6 -1.5Z" stroke="#508aa5" fill="none" stroke-width="2"></path></g><g transform="translate(545 416)"><path d="M0 -2L1.7 -1L1.7 1L0 2L-1.7 1L-1.7 -1Z" stroke="#508aa5" fill="none" stroke-width="2"></path></g><g transform="translate(490 566)"><path d="M0 -8L6.9 -4L6.9 4L0 8L-6.9 4L-6.9 -4Z" stroke="#508aa5" fill="none" stroke-width="2"></path></g><g transform="translate(65 249)"><path d="M0 -3L2.6 -1.5L2.6 1.5L0 3L-2.6 1.5L-2.6 -1.5Z" stroke="#508aa5" fill="none" stroke-width="2"></path></g><g transform="translate(559 300)"><path d="M0 -12L10.4 -6L10.4 6L0 12L-10.4 6L-10.4 -6Z" stroke="#508aa5" fill="none" stroke-width="2"></path></g><g transform="translate(826 72)"><path d="M0 -1L0.9 -0.5L0.9 0.5L0 1L-0.9 0.5L-0.9 -0.5Z" stroke="#508aa5" fill="none" stroke-width="2"></path></g><g transform="translate(777 81)"><path d="M0 -3L2.6 -1.5L2.6 1.5L0 3L-2.6 1.5L-2.6 -1.5Z" stroke="#508aa5" fill="none" stroke-width="2"></path></g></g></svg>